<mxfile host="app.diagrams.net" agent="Mozilla/5.0 (Macintosh; Intel Mac OS X 10_15_7) AppleWebKit/537.36 (KHTML, like Gecko) Chrome/127.0.0.0 Safari/537.36" version="24.7.6">
  <diagram id="C5RBs43oDa-KdzZeNtuy" name="Page-1">
    <mxGraphModel dx="993" dy="1814" grid="1" gridSize="10" guides="1" tooltips="1" connect="1" arrows="1" fold="1" page="1" pageScale="1" pageWidth="827" pageHeight="1169" math="0" shadow="0">
      <root>
        <mxCell id="WIyWlLk6GJQsqaUBKTNV-0" />
        <mxCell id="WIyWlLk6GJQsqaUBKTNV-1" parent="WIyWlLk6GJQsqaUBKTNV-0" />
        <mxCell id="ZpzSjxvlL0HwbukTPWf1-8" value="INITIALIZE GAME BOARD" style="rounded=1;whiteSpace=wrap;html=1;fillColor=#1ba1e2;fontColor=#ffffff;strokeColor=#006EAF;" vertex="1" parent="WIyWlLk6GJQsqaUBKTNV-1">
          <mxGeometry x="120" y="220" width="110" height="40" as="geometry" />
        </mxCell>
        <mxCell id="ZpzSjxvlL0HwbukTPWf1-11" value="Create &#39;Table game&#39; instances" style="rounded=1;whiteSpace=wrap;html=1;fillColor=#fa6800;fontColor=#000000;strokeColor=#C73500;" vertex="1" parent="WIyWlLk6GJQsqaUBKTNV-1">
          <mxGeometry x="130" y="130" width="100" height="40" as="geometry" />
        </mxCell>
        <mxCell id="ZpzSjxvlL0HwbukTPWf1-12" value="Game loop 10 turns." style="rounded=1;whiteSpace=wrap;html=1;fillColor=#fa6800;fontColor=#000000;strokeColor=#C73500;" vertex="1" parent="WIyWlLk6GJQsqaUBKTNV-1">
          <mxGeometry x="414" y="60" width="100" height="40" as="geometry" />
        </mxCell>
        <mxCell id="ZpzSjxvlL0HwbukTPWf1-13" value="Place ships for Tom and computer" style="rounded=1;whiteSpace=wrap;html=1;fillColor=#fa6800;fontColor=#000000;strokeColor=#C73500;" vertex="1" parent="WIyWlLk6GJQsqaUBKTNV-1">
          <mxGeometry x="240" y="60" width="100" height="40" as="geometry" />
        </mxCell>
        <mxCell id="ZpzSjxvlL0HwbukTPWf1-14" value="Display final boards" style="rounded=1;whiteSpace=wrap;html=1;fillColor=#fff2cc;strokeColor=#d6b656;" vertex="1" parent="WIyWlLk6GJQsqaUBKTNV-1">
          <mxGeometry x="450" y="320" width="100" height="40" as="geometry" />
        </mxCell>
        <mxCell id="ZpzSjxvlL0HwbukTPWf1-15" value="Display game over message" style="rounded=1;whiteSpace=wrap;html=1;fillColor=#fff2cc;strokeColor=#d6b656;" vertex="1" parent="WIyWlLk6GJQsqaUBKTNV-1">
          <mxGeometry x="450" y="260" width="100" height="40" as="geometry" />
        </mxCell>
        <mxCell id="ZpzSjxvlL0HwbukTPWf1-16" value="Finish game" style="rounded=1;whiteSpace=wrap;html=1;fillColor=#fa6800;fontColor=#000000;strokeColor=#C73500;" vertex="1" parent="WIyWlLk6GJQsqaUBKTNV-1">
          <mxGeometry x="450" y="200" width="100" height="40" as="geometry" />
        </mxCell>
        <mxCell id="ZpzSjxvlL0HwbukTPWf1-17" value="Loop 5 times each" style="rounded=1;whiteSpace=wrap;html=1;fillColor=#dae8fc;strokeColor=#6c8ebf;" vertex="1" parent="WIyWlLk6GJQsqaUBKTNV-1">
          <mxGeometry x="380" y="-130" width="100" height="40" as="geometry" />
        </mxCell>
        <mxCell id="ZpzSjxvlL0HwbukTPWf1-18" value="END" style="rounded=1;whiteSpace=wrap;html=1;fillColor=#e51400;fontColor=#ffffff;strokeColor=#B20000;" vertex="1" parent="WIyWlLk6GJQsqaUBKTNV-1">
          <mxGeometry x="630" y="310" width="100" height="40" as="geometry" />
        </mxCell>
        <mxCell id="ZpzSjxvlL0HwbukTPWf1-19" value="Place ship in coordenates (x, y)" style="rounded=1;whiteSpace=wrap;html=1;fillColor=#dae8fc;strokeColor=#6c8ebf;" vertex="1" parent="WIyWlLk6GJQsqaUBKTNV-1">
          <mxGeometry x="380" y="-10" width="100" height="40" as="geometry" />
        </mxCell>
        <mxCell id="ZpzSjxvlL0HwbukTPWf1-20" value="Check if position not occupied.&amp;nbsp;" style="rounded=1;whiteSpace=wrap;html=1;fillColor=#dae8fc;strokeColor=#6c8ebf;" vertex="1" parent="WIyWlLk6GJQsqaUBKTNV-1">
          <mxGeometry x="380" y="-70" width="100" height="40" as="geometry" />
        </mxCell>
        <mxCell id="ZpzSjxvlL0HwbukTPWf1-21" value="Check if position is taken" style="rounded=1;whiteSpace=wrap;html=1;fillColor=#ffe6cc;strokeColor=#d79b00;" vertex="1" parent="WIyWlLk6GJQsqaUBKTNV-1">
          <mxGeometry x="610" y="-10" width="100" height="40" as="geometry" />
        </mxCell>
        <mxCell id="ZpzSjxvlL0HwbukTPWf1-22" value="Validate user input" style="rounded=1;whiteSpace=wrap;html=1;fillColor=#ffe6cc;strokeColor=#d79b00;" vertex="1" parent="WIyWlLk6GJQsqaUBKTNV-1">
          <mxGeometry x="610" y="-70" width="100" height="40" as="geometry" />
        </mxCell>
        <mxCell id="ZpzSjxvlL0HwbukTPWf1-23" value="Ask user position" style="rounded=1;whiteSpace=wrap;html=1;fillColor=#ffe6cc;strokeColor=#d79b00;" vertex="1" parent="WIyWlLk6GJQsqaUBKTNV-1">
          <mxGeometry x="610" y="-130" width="100" height="40" as="geometry" />
        </mxCell>
        <mxCell id="ZpzSjxvlL0HwbukTPWf1-24" value="HIT = X&lt;div&gt;MISS = -&lt;/div&gt;" style="rounded=1;whiteSpace=wrap;html=1;fillColor=#ffe6cc;strokeColor=#d79b00;" vertex="1" parent="WIyWlLk6GJQsqaUBKTNV-1">
          <mxGeometry x="610" y="50" width="100" height="40" as="geometry" />
        </mxCell>
        <mxCell id="ZpzSjxvlL0HwbukTPWf1-25" value="Decrement turns" style="rounded=1;whiteSpace=wrap;html=1;fillColor=#ffe6cc;strokeColor=#d79b00;" vertex="1" parent="WIyWlLk6GJQsqaUBKTNV-1">
          <mxGeometry x="610" y="110" width="100" height="40" as="geometry" />
        </mxCell>
        <mxCell id="ZpzSjxvlL0HwbukTPWf1-26" value="START" style="rounded=1;whiteSpace=wrap;html=1;fillColor=#60a917;strokeColor=#2D7600;fontColor=#ffffff;" vertex="1" parent="WIyWlLk6GJQsqaUBKTNV-1">
          <mxGeometry x="20" y="285" width="120" height="60" as="geometry" />
        </mxCell>
        <mxCell id="ZpzSjxvlL0HwbukTPWf1-29" value="" style="endArrow=classic;html=1;rounded=0;entryX=0;entryY=0.5;entryDx=0;entryDy=0;" edge="1" parent="WIyWlLk6GJQsqaUBKTNV-1" target="ZpzSjxvlL0HwbukTPWf1-8">
          <mxGeometry width="50" height="50" relative="1" as="geometry">
            <mxPoint x="55" y="285" as="sourcePoint" />
            <mxPoint x="105" y="235" as="targetPoint" />
            <Array as="points">
              <mxPoint x="55" y="240" />
            </Array>
          </mxGeometry>
        </mxCell>
        <mxCell id="ZpzSjxvlL0HwbukTPWf1-31" value="" style="endArrow=classic;html=1;rounded=0;entryX=0;entryY=0.5;entryDx=0;entryDy=0;" edge="1" parent="WIyWlLk6GJQsqaUBKTNV-1" target="ZpzSjxvlL0HwbukTPWf1-13">
          <mxGeometry width="50" height="50" relative="1" as="geometry">
            <mxPoint x="180" y="130" as="sourcePoint" />
            <mxPoint x="230" y="80" as="targetPoint" />
            <Array as="points">
              <mxPoint x="180" y="80" />
            </Array>
          </mxGeometry>
        </mxCell>
        <mxCell id="ZpzSjxvlL0HwbukTPWf1-32" value="" style="endArrow=classic;html=1;rounded=0;entryX=0.41;entryY=1;entryDx=0;entryDy=0;entryPerimeter=0;" edge="1" parent="WIyWlLk6GJQsqaUBKTNV-1" target="ZpzSjxvlL0HwbukTPWf1-11">
          <mxGeometry width="50" height="50" relative="1" as="geometry">
            <mxPoint x="170" y="220" as="sourcePoint" />
            <mxPoint x="220" y="170" as="targetPoint" />
          </mxGeometry>
        </mxCell>
        <mxCell id="ZpzSjxvlL0HwbukTPWf1-33" value="" style="endArrow=none;html=1;rounded=0;" edge="1" parent="WIyWlLk6GJQsqaUBKTNV-1">
          <mxGeometry width="50" height="50" relative="1" as="geometry">
            <mxPoint x="360" y="80" as="sourcePoint" />
            <mxPoint x="360" y="30" as="targetPoint" />
          </mxGeometry>
        </mxCell>
        <mxCell id="ZpzSjxvlL0HwbukTPWf1-37" value="" style="endArrow=classic;html=1;rounded=0;entryX=0;entryY=0.5;entryDx=0;entryDy=0;" edge="1" parent="WIyWlLk6GJQsqaUBKTNV-1" target="ZpzSjxvlL0HwbukTPWf1-17">
          <mxGeometry width="50" height="50" relative="1" as="geometry">
            <mxPoint x="360" y="30" as="sourcePoint" />
            <mxPoint x="414" y="-20" as="targetPoint" />
            <Array as="points">
              <mxPoint x="360" y="-40" />
              <mxPoint x="360" y="-110" />
            </Array>
          </mxGeometry>
        </mxCell>
        <mxCell id="ZpzSjxvlL0HwbukTPWf1-38" value="" style="endArrow=none;html=1;rounded=0;" edge="1" parent="WIyWlLk6GJQsqaUBKTNV-1">
          <mxGeometry width="50" height="50" relative="1" as="geometry">
            <mxPoint x="430" y="-70" as="sourcePoint" />
            <mxPoint x="430" y="-90" as="targetPoint" />
          </mxGeometry>
        </mxCell>
        <mxCell id="ZpzSjxvlL0HwbukTPWf1-39" value="" style="endArrow=none;html=1;rounded=0;" edge="1" parent="WIyWlLk6GJQsqaUBKTNV-1">
          <mxGeometry width="50" height="50" relative="1" as="geometry">
            <mxPoint x="429.64" y="-10" as="sourcePoint" />
            <mxPoint x="429.64" y="-30" as="targetPoint" />
          </mxGeometry>
        </mxCell>
        <mxCell id="ZpzSjxvlL0HwbukTPWf1-40" value="" style="endArrow=none;html=1;rounded=0;" edge="1" parent="WIyWlLk6GJQsqaUBKTNV-1">
          <mxGeometry width="50" height="50" relative="1" as="geometry">
            <mxPoint x="659.5" y="110" as="sourcePoint" />
            <mxPoint x="659.5" y="90" as="targetPoint" />
          </mxGeometry>
        </mxCell>
        <mxCell id="ZpzSjxvlL0HwbukTPWf1-41" value="" style="endArrow=none;html=1;rounded=0;" edge="1" parent="WIyWlLk6GJQsqaUBKTNV-1">
          <mxGeometry width="50" height="50" relative="1" as="geometry">
            <mxPoint x="499.55" y="260" as="sourcePoint" />
            <mxPoint x="499.55" y="240" as="targetPoint" />
          </mxGeometry>
        </mxCell>
        <mxCell id="ZpzSjxvlL0HwbukTPWf1-42" value="" style="endArrow=none;html=1;rounded=0;" edge="1" parent="WIyWlLk6GJQsqaUBKTNV-1">
          <mxGeometry width="50" height="50" relative="1" as="geometry">
            <mxPoint x="659.72" y="-70" as="sourcePoint" />
            <mxPoint x="659.72" y="-90" as="targetPoint" />
          </mxGeometry>
        </mxCell>
        <mxCell id="ZpzSjxvlL0HwbukTPWf1-43" value="" style="endArrow=none;html=1;rounded=0;" edge="1" parent="WIyWlLk6GJQsqaUBKTNV-1">
          <mxGeometry width="50" height="50" relative="1" as="geometry">
            <mxPoint x="659.72" y="-10" as="sourcePoint" />
            <mxPoint x="659.72" y="-30" as="targetPoint" />
          </mxGeometry>
        </mxCell>
        <mxCell id="ZpzSjxvlL0HwbukTPWf1-44" value="" style="endArrow=none;html=1;rounded=0;" edge="1" parent="WIyWlLk6GJQsqaUBKTNV-1">
          <mxGeometry width="50" height="50" relative="1" as="geometry">
            <mxPoint x="659.72" y="50" as="sourcePoint" />
            <mxPoint x="659.72" y="30" as="targetPoint" />
          </mxGeometry>
        </mxCell>
        <mxCell id="ZpzSjxvlL0HwbukTPWf1-45" value="" style="endArrow=none;html=1;rounded=0;" edge="1" parent="WIyWlLk6GJQsqaUBKTNV-1">
          <mxGeometry width="50" height="50" relative="1" as="geometry">
            <mxPoint x="340" y="80" as="sourcePoint" />
            <mxPoint x="360" y="80" as="targetPoint" />
          </mxGeometry>
        </mxCell>
        <mxCell id="ZpzSjxvlL0HwbukTPWf1-46" value="" style="endArrow=classic;html=1;rounded=0;entryX=0.5;entryY=1;entryDx=0;entryDy=0;" edge="1" parent="WIyWlLk6GJQsqaUBKTNV-1" target="ZpzSjxvlL0HwbukTPWf1-12">
          <mxGeometry width="50" height="50" relative="1" as="geometry">
            <mxPoint x="280" y="100" as="sourcePoint" />
            <mxPoint x="280" y="200" as="targetPoint" />
            <Array as="points">
              <mxPoint x="280" y="160" />
              <mxPoint x="400" y="160" />
              <mxPoint x="464" y="160" />
            </Array>
          </mxGeometry>
        </mxCell>
        <mxCell id="ZpzSjxvlL0HwbukTPWf1-47" value="" style="endArrow=classic;html=1;rounded=0;entryX=-0.032;entryY=0.443;entryDx=0;entryDy=0;entryPerimeter=0;exitX=1;exitY=0.5;exitDx=0;exitDy=0;" edge="1" parent="WIyWlLk6GJQsqaUBKTNV-1" source="ZpzSjxvlL0HwbukTPWf1-12" target="ZpzSjxvlL0HwbukTPWf1-23">
          <mxGeometry width="50" height="50" relative="1" as="geometry">
            <mxPoint x="540" y="-60" as="sourcePoint" />
            <mxPoint x="590" y="-110" as="targetPoint" />
            <Array as="points">
              <mxPoint x="540" y="80" />
              <mxPoint x="540" y="-10" />
              <mxPoint x="540" y="-112" />
            </Array>
          </mxGeometry>
        </mxCell>
        <mxCell id="ZpzSjxvlL0HwbukTPWf1-48" value="" style="endArrow=none;html=1;rounded=0;" edge="1" parent="WIyWlLk6GJQsqaUBKTNV-1">
          <mxGeometry width="50" height="50" relative="1" as="geometry">
            <mxPoint x="499.82" y="320" as="sourcePoint" />
            <mxPoint x="499.82" y="300" as="targetPoint" />
          </mxGeometry>
        </mxCell>
        <mxCell id="ZpzSjxvlL0HwbukTPWf1-49" value="" style="endArrow=classic;html=1;rounded=0;" edge="1" parent="WIyWlLk6GJQsqaUBKTNV-1">
          <mxGeometry width="50" height="50" relative="1" as="geometry">
            <mxPoint x="500" y="100" as="sourcePoint" />
            <mxPoint x="500" y="200" as="targetPoint" />
          </mxGeometry>
        </mxCell>
        <mxCell id="ZpzSjxvlL0HwbukTPWf1-52" value="" style="endArrow=classic;html=1;rounded=0;exitX=1;exitY=0.5;exitDx=0;exitDy=0;" edge="1" parent="WIyWlLk6GJQsqaUBKTNV-1" source="ZpzSjxvlL0HwbukTPWf1-16">
          <mxGeometry width="50" height="50" relative="1" as="geometry">
            <mxPoint x="767" y="285" as="sourcePoint" />
            <mxPoint x="680" y="310" as="targetPoint" />
            <Array as="points">
              <mxPoint x="680" y="220" />
            </Array>
          </mxGeometry>
        </mxCell>
      </root>
    </mxGraphModel>
  </diagram>
</mxfile>
